<svg width="32" height="32" viewBox="0 0 32 32" fill="none" xmlns="http://www.w3.org/2000/svg">
<g id="Icon">
<path id="Icon_2" d="M16.0002 30.6668C24.1003 30.6668 30.6668 24.1003 30.6668 16.0002C30.6668 7.89999 24.1003 1.3335 16.0002 1.3335M16.0002 30.6668C7.89999 30.6668 1.3335 24.1003 1.3335 16.0002C1.3335 7.89999 7.89999 1.3335 16.0002 1.3335M16.0002 30.6668C18.9457 30.6668 21.3335 24.1003 21.3335 16.0002C21.3335 7.89999 18.9457 1.3335 16.0002 1.3335M16.0002 30.6668C13.0546 30.6668 10.6668 24.1003 10.6668 16.0002C10.6668 7.89999 13.0546 1.3335 16.0002 1.3335M2.66683 10.6668H29.3335M2.66683 20.0002H29.3335" stroke="#437EF7" stroke-width="2" stroke-linecap="round"/>
</g>
</svg>
