<svg width="32" height="32" viewBox="0 0 32 32" fill="none" xmlns="http://www.w3.org/2000/svg">
<g id="Icon">
<path id="Icon_2" d="M16.0002 30.6666C24.1003 30.6666 30.6668 24.1001 30.6668 15.9999C30.6668 7.89974 24.1003 1.33325 16.0002 1.33325M16.0002 30.6666C7.89999 30.6666 1.3335 24.1001 1.3335 15.9999C1.3335 7.89974 7.89999 1.33325 16.0002 1.33325M16.0002 30.6666C18.9457 30.6666 21.3335 24.1001 21.3335 15.9999C21.3335 7.89974 18.9457 1.33325 16.0002 1.33325M16.0002 30.6666C13.0546 30.6666 10.6668 24.1001 10.6668 15.9999C10.6668 7.89974 13.0546 1.33325 16.0002 1.33325M2.66683 10.6666H29.3335M2.66683 19.9999H29.3335" stroke="white" stroke-width="2" stroke-linecap="round"/>
</g>
</svg>
