<svg width="20" height="20" viewBox="0 0 20 20" fill="none" xmlns="http://www.w3.org/2000/svg">
<g id="Button container">
<g id="Button">
<path id="Vector" d="M0 1.43266C0 0.641875 0.662031 0 1.47812 0H18.5219C19.3383 0 20 0.641875 20 1.43266V18.5676C20 19.3586 19.3383 20 18.5219 20H1.47812C0.662109 20 0 19.3587 0 18.5678V1.43242V1.43266Z" fill="#272D37"/>
<path id="Vector_2" d="M6.07791 16.7376V7.73353H3.0851V16.7376H6.07822H6.07791ZM4.58213 6.50439C5.62557 6.50439 6.27518 5.81299 6.27518 4.94893C6.25564 4.06518 5.62557 3.39307 4.60197 3.39307C3.57768 3.39307 2.90869 4.06518 2.90869 4.94885C2.90869 5.81291 3.55807 6.50432 4.56252 6.50432H4.58189L4.58213 6.50439ZM7.73447 16.7376H10.727V11.7099C10.727 11.4411 10.7466 11.1717 10.8256 10.9797C11.0419 10.4418 11.5343 9.88502 12.3613 9.88502C13.4439 9.88502 13.8773 10.7106 13.8773 11.9212V16.7376H16.8698V11.5749C16.8698 8.80939 15.3935 7.52244 13.4245 7.52244C11.8103 7.52244 11.1013 8.42471 10.7074 9.03924H10.7273V7.73385H7.73463C7.77369 8.57854 7.73439 16.7379 7.73439 16.7379L7.73447 16.7376Z" fill="white"/>
</g>
</g>
</svg>
