<svg width="32" height="32" viewBox="0 0 32 32" fill="none" xmlns="http://www.w3.org/2000/svg">
<g id="Icon">
<path id="Icon_2" d="M19.8976 9.45073L17.1477 4.6638C16.6371 3.77499 15.3563 3.77073 14.8398 4.65613L11.938 9.63063C11.5537 10.2895 10.9056 10.7523 10.1576 10.9019L6.19263 11.6948C5.16572 11.9002 4.76558 13.155 5.484 13.917L8.35177 16.9585C8.965 17.6089 9.21157 18.5233 9.00844 19.3939L7.7104 24.9569C7.44357 26.1005 8.67836 27.0056 9.68859 26.4069L14.6409 23.4722C15.4791 22.9755 16.5216 22.9755 17.3598 23.4722L22.3121 26.4069C23.3223 27.0056 24.5571 26.1005 24.2903 24.9569L22.9809 19.3451C22.7841 18.5016 23.0092 17.615 23.5847 16.9676L26.456 13.7373C27.1401 12.9677 26.7307 11.746 25.721 11.5441L21.6869 10.7373C20.9329 10.5865 20.2806 10.1175 19.8976 9.45073Z" stroke="#437EF7" stroke-width="2" stroke-miterlimit="10"/>
</g>
</svg>
