<svg width="32" height="32" viewBox="0 0 32 32" fill="none" xmlns="http://www.w3.org/2000/svg">
<g id="Icon">
<path id="Icon_2" d="M19.8976 9.45097L17.1477 4.66404C16.6371 3.77523 15.3563 3.77098 14.8398 4.65638L11.938 9.63087C11.5537 10.2898 10.9056 10.7525 10.1576 10.9021L6.19263 11.6951C5.16572 11.9005 4.76558 13.1553 5.484 13.9172L8.35177 16.9588C8.965 17.6092 9.21157 18.5236 9.00844 19.3941L7.7104 24.9572C7.44357 26.1007 8.67836 27.0058 9.68859 26.4072L14.6409 23.4725C15.4791 22.9758 16.5216 22.9758 17.3598 23.4725L22.3121 26.4072C23.3223 27.0058 24.5571 26.1007 24.2903 24.9572L22.9809 19.3454C22.7841 18.5018 23.0092 17.6152 23.5847 16.9678L26.456 13.7376C27.1401 12.9679 26.7307 11.7463 25.721 11.5443L21.6869 10.7375C20.9329 10.5867 20.2806 10.1178 19.8976 9.45097Z" stroke="white" stroke-width="2" stroke-miterlimit="10"/>
</g>
</svg>
